<svg width="19" height="19" viewBox="0 0 19 19" fill="none" xmlns="http://www.w3.org/2000/svg">
<path d="M8.997 4.372C6.443 4.372 4.374 6.442 4.374 8.995C4.374 11.549 6.443 13.619 8.997 13.619C11.549 13.619 13.62 11.549 13.62 8.995C13.62 6.442 11.549 4.372 8.997 4.372ZM8.997 11.999C7.338 11.999 5.993 10.654 5.993 8.996C5.993 7.337 7.338 5.993 8.997 5.993C10.656 5.993 11.999 7.337 11.999 8.996C11.999 10.654 10.656 11.999 8.997 11.999Z" fill="#555E68"/>
<path d="M13.804 5.28C14.3994 5.28 14.882 4.79736 14.882 4.202C14.882 3.60664 14.3994 3.124 13.804 3.124C13.2086 3.124 12.726 3.60664 12.726 4.202C12.726 4.79736 13.2086 5.28 13.804 5.28Z" fill="#555E68"/>
<path d="M17.531 3.106C17.062 1.897 16.107 0.941 14.898 0.474C14.199 0.211 13.46 0.0699999 12.712 0.0539999C11.749 0.0119999 11.444 0 9.002 0C6.56 0 6.247 -1.00583e-07 5.292 0.0539999C4.546 0.0689999 3.807 0.21 3.108 0.474C1.898 0.941 0.943 1.897 0.475 3.106C0.212 3.806 0.071 4.544 0.056 5.292C0.013 6.254 0 6.559 0 9.002C0 11.444 -7.45058e-09 11.755 0.056 12.712C0.071 13.46 0.212 14.198 0.475 14.899C0.944 16.107 1.899 17.063 3.109 17.531C3.805 17.803 4.544 17.957 5.294 17.981C6.257 18.023 6.562 18.036 9.004 18.036C11.446 18.036 11.759 18.036 12.714 17.981C13.461 17.966 14.2 17.824 14.9 17.562C16.109 17.093 17.064 16.138 17.533 14.929C17.796 14.229 17.937 13.491 17.952 12.743C17.995 11.781 18.008 11.476 18.008 9.033C18.008 6.59 18.008 6.28 17.952 5.323C17.939 4.565 17.799 3.814 17.531 3.106ZM16.313 12.638C16.306 13.214 16.202 13.785 16.002 14.326C15.697 15.113 15.076 15.735 14.29 16.037C13.755 16.236 13.191 16.34 12.62 16.348C11.67 16.392 11.402 16.403 8.966 16.403C6.528 16.403 6.279 16.403 5.311 16.348C4.742 16.341 4.176 16.236 3.642 16.037C2.853 15.736 2.228 15.114 1.923 14.326C1.727 13.792 1.621 13.227 1.612 12.657C1.569 11.707 1.559 11.439 1.559 9.003C1.559 6.566 1.559 6.317 1.612 5.348C1.619 4.772 1.723 4.202 1.923 3.661C2.228 2.872 2.853 2.251 3.642 1.949C4.176 1.751 4.742 1.646 5.311 1.638C6.262 1.595 6.529 1.583 8.966 1.583C11.403 1.583 11.653 1.583 12.62 1.638C13.191 1.645 13.755 1.75 14.29 1.949C15.076 2.252 15.697 2.874 16.002 3.661C16.198 4.195 16.304 4.76 16.313 5.33C16.356 6.281 16.367 6.548 16.367 8.985C16.367 11.421 16.367 11.683 16.324 12.639H16.313V12.638Z" fill="#555E68"/>
</svg>
