<svg width="22" height="17" viewBox="0 0 22 17" fill="none" xmlns="http://www.w3.org/2000/svg">
<path d="M21.4572 2.01238C20.6876 2.35373 19.8604 2.58442 18.9924 2.68815C19.8783 2.15701 20.5589 1.31598 20.8793 0.31378C20.05 0.80564 19.1316 1.16278 18.154 1.3552C17.3712 0.52112 16.2559 0 15.0215 0C12.6514 0 10.7297 1.92147 10.7297 4.29155C10.7297 4.6279 10.7677 4.95546 10.8409 5.2696C7.27414 5.0906 4.1118 3.38203 1.99514 0.78551C1.6257 1.41935 1.41406 2.15656 1.41406 2.94309C1.41406 4.43204 2.17169 5.74563 3.32328 6.5153C2.61984 6.4929 1.95801 6.2999 1.37944 5.97846C1.37903 5.99639 1.37903 6.0143 1.37903 6.0324C1.37903 8.1118 2.85838 9.8463 4.82164 10.2406C4.46154 10.3387 4.08239 10.3912 3.69099 10.3912C3.41445 10.3912 3.1456 10.3642 2.88351 10.3142C3.42966 12.0191 5.01458 13.26 6.89259 13.2945C5.42381 14.4457 3.57332 15.1318 1.56258 15.1318C1.21617 15.1318 0.874558 15.1114 0.538818 15.0717C2.43808 16.2894 4.69396 17 7.11755 17C15.0114 17 19.3282 10.4605 19.3282 4.78918C19.3282 4.60314 19.324 4.41805 19.3157 4.23395C20.1543 3.62886 20.8819 2.87302 21.4572 2.01238Z" fill="#555E68"/>
</svg>
