<svg width="21" height="15" viewBox="0 0 21 15" fill="none" xmlns="http://www.w3.org/2000/svg">
<path d="M20.5911 2.20301C20.3611 1.34501 19.6861 0.668007 18.8291 0.437007C17.2631 0.00700739 10.9981 7.5965e-06 10.9981 7.5965e-06C10.9981 7.5965e-06 4.73413 -0.00699261 3.16713 0.404007C2.32713 0.633007 1.63313 1.32501 1.40113 2.18201C0.988133 3.74801 0.984132 6.99601 0.984132 6.99601C0.984132 6.99601 0.980132 10.26 1.39013 11.81C1.62013 12.667 2.29513 13.344 3.15313 13.575C4.73513 14.005 10.9831 14.012 10.9831 14.012C10.9831 14.012 17.2481 14.019 18.8141 13.609C19.6701 13.379 20.3481 12.703 20.5811 11.846C20.9951 10.281 20.9981 7.03401 20.9981 7.03401C20.9981 7.03401 21.0181 3.76901 20.5911 2.20301ZM8.99413 10.005L8.99913 4.00501L14.2061 7.01001L8.99413 10.005Z" fill="#555E68"/>
</svg>
